<mxfile host="app.diagrams.net" agent="Mozilla/5.0 (Windows NT 10.0; Win64; x64) AppleWebKit/537.36 (KHTML, like Gecko) Chrome/141.0.0.0 Safari/537.36 Edg/141.0.0.0" scale="1" border="0" version="28.2.8">
  <diagram name="Pagina-1" id="WT3tB6TWUUna690uiESk">
    <mxGraphModel dx="1273" dy="570" grid="1" gridSize="10" guides="1" tooltips="1" connect="1" arrows="1" fold="1" page="1" pageScale="1" pageWidth="827" pageHeight="1169" math="0" shadow="0">
      <root>
        <mxCell id="0" />
        <mxCell id="1" parent="0" />
        <mxCell id="0fdydrhazGTEk_-vEH8I-1" value="tos.ino" style="rounded=1;whiteSpace=wrap;html=1;" parent="1" vertex="1">
          <mxGeometry x="320" y="410" width="100" height="50" as="geometry" />
        </mxCell>
        <mxCell id="0fdydrhazGTEk_-vEH8I-2" value="actuators" style="rounded=1;whiteSpace=wrap;html=1;" parent="1" vertex="1">
          <mxGeometry x="150" y="270" width="100" height="50" as="geometry" />
        </mxCell>
        <mxCell id="0fdydrhazGTEk_-vEH8I-3" value="config" style="rounded=1;whiteSpace=wrap;html=1;" parent="1" vertex="1">
          <mxGeometry x="320" y="190" width="100" height="50" as="geometry" />
        </mxCell>
        <mxCell id="0fdydrhazGTEk_-vEH8I-4" value="logic" style="rounded=1;whiteSpace=wrap;html=1;" parent="1" vertex="1">
          <mxGeometry x="510" y="270" width="100" height="50" as="geometry" />
        </mxCell>
        <mxCell id="0fdydrhazGTEk_-vEH8I-5" value="output" style="rounded=1;whiteSpace=wrap;html=1;" parent="1" vertex="1">
          <mxGeometry x="510" y="410" width="100" height="50" as="geometry" />
        </mxCell>
        <mxCell id="ZOg9Xyuhdv3uY7gmQWk4-1" value="timer" style="rounded=1;whiteSpace=wrap;html=1;" parent="1" vertex="1">
          <mxGeometry x="150" y="410" width="100" height="50" as="geometry" />
        </mxCell>
        <mxCell id="ZOg9Xyuhdv3uY7gmQWk4-2" value="" style="endArrow=block;html=1;rounded=0;exitX=0;exitY=0.25;exitDx=0;exitDy=0;entryX=1;entryY=1;entryDx=0;entryDy=0;endFill=0;dashed=1;" parent="1" source="0fdydrhazGTEk_-vEH8I-1" target="0fdydrhazGTEk_-vEH8I-2" edge="1">
          <mxGeometry width="50" height="50" relative="1" as="geometry">
            <mxPoint x="390" y="360" as="sourcePoint" />
            <mxPoint x="440" y="310" as="targetPoint" />
          </mxGeometry>
        </mxCell>
        <mxCell id="ZOg9Xyuhdv3uY7gmQWk4-3" value="" style="endArrow=block;html=1;rounded=0;exitX=0.5;exitY=0;exitDx=0;exitDy=0;entryX=0.5;entryY=1;entryDx=0;entryDy=0;endFill=0;dashed=1;" parent="1" source="0fdydrhazGTEk_-vEH8I-1" target="0fdydrhazGTEk_-vEH8I-3" edge="1">
          <mxGeometry width="50" height="50" relative="1" as="geometry">
            <mxPoint x="390" y="360" as="sourcePoint" />
            <mxPoint x="440" y="310" as="targetPoint" />
          </mxGeometry>
        </mxCell>
        <mxCell id="ZOg9Xyuhdv3uY7gmQWk4-4" value="" style="endArrow=block;html=1;rounded=0;entryX=0;entryY=1;entryDx=0;entryDy=0;exitX=1;exitY=0.25;exitDx=0;exitDy=0;endFill=0;dashed=1;" parent="1" source="0fdydrhazGTEk_-vEH8I-1" target="0fdydrhazGTEk_-vEH8I-4" edge="1">
          <mxGeometry width="50" height="50" relative="1" as="geometry">
            <mxPoint x="390" y="360" as="sourcePoint" />
            <mxPoint x="440" y="310" as="targetPoint" />
          </mxGeometry>
        </mxCell>
        <mxCell id="ZOg9Xyuhdv3uY7gmQWk4-5" value="" style="endArrow=block;html=1;rounded=0;entryX=0;entryY=0.5;entryDx=0;entryDy=0;exitX=1;exitY=0.5;exitDx=0;exitDy=0;endFill=0;dashed=1;" parent="1" source="0fdydrhazGTEk_-vEH8I-1" target="0fdydrhazGTEk_-vEH8I-5" edge="1">
          <mxGeometry width="50" height="50" relative="1" as="geometry">
            <mxPoint x="390" y="360" as="sourcePoint" />
            <mxPoint x="440" y="310" as="targetPoint" />
          </mxGeometry>
        </mxCell>
        <mxCell id="ZOg9Xyuhdv3uY7gmQWk4-6" value="" style="endArrow=block;html=1;rounded=0;exitX=0;exitY=0.5;exitDx=0;exitDy=0;entryX=1;entryY=0.5;entryDx=0;entryDy=0;endFill=0;dashed=1;" parent="1" source="0fdydrhazGTEk_-vEH8I-1" target="ZOg9Xyuhdv3uY7gmQWk4-1" edge="1">
          <mxGeometry width="50" height="50" relative="1" as="geometry">
            <mxPoint x="390" y="360" as="sourcePoint" />
            <mxPoint x="440" y="310" as="targetPoint" />
          </mxGeometry>
        </mxCell>
        <mxCell id="ZOg9Xyuhdv3uY7gmQWk4-7" value="" style="endArrow=block;html=1;rounded=0;exitX=0;exitY=0;exitDx=0;exitDy=0;entryX=1;entryY=0.25;entryDx=0;entryDy=0;endFill=0;dashed=1;" parent="1" source="0fdydrhazGTEk_-vEH8I-4" target="0fdydrhazGTEk_-vEH8I-3" edge="1">
          <mxGeometry width="50" height="50" relative="1" as="geometry">
            <mxPoint x="390" y="370" as="sourcePoint" />
            <mxPoint x="440" y="320" as="targetPoint" />
          </mxGeometry>
        </mxCell>
        <mxCell id="ZOg9Xyuhdv3uY7gmQWk4-8" value="" style="endArrow=block;html=1;rounded=0;exitX=1;exitY=0;exitDx=0;exitDy=0;entryX=0;entryY=0.25;entryDx=0;entryDy=0;dashed=1;endFill=0;" parent="1" source="0fdydrhazGTEk_-vEH8I-2" target="0fdydrhazGTEk_-vEH8I-3" edge="1">
          <mxGeometry width="50" height="50" relative="1" as="geometry">
            <mxPoint x="390" y="370" as="sourcePoint" />
            <mxPoint x="440" y="320" as="targetPoint" />
          </mxGeometry>
        </mxCell>
        <mxCell id="ZOg9Xyuhdv3uY7gmQWk4-9" value="" style="endArrow=block;html=1;rounded=0;exitX=0;exitY=0;exitDx=0;exitDy=0;entryX=1;entryY=1;entryDx=0;entryDy=0;dashed=1;endFill=0;" parent="1" source="0fdydrhazGTEk_-vEH8I-5" target="0fdydrhazGTEk_-vEH8I-3" edge="1">
          <mxGeometry width="50" height="50" relative="1" as="geometry">
            <mxPoint x="390" y="370" as="sourcePoint" />
            <mxPoint x="440" y="320" as="targetPoint" />
          </mxGeometry>
        </mxCell>
      </root>
    </mxGraphModel>
  </diagram>
</mxfile>
